<?xml version="1.0" ?><!DOCTYPE svg  PUBLIC '-//W3C//DTD SVG 1.1//EN'  'http://www.w3.org/Graphics/SVG/1.1/DTD/svg11.dtd'><svg enable-background="new 0 0 30 30" height="30px" id="square_icons" version="1.1" viewBox="0 0 30 30" width="30px" xml:space="preserve" xmlns="http://www.w3.org/2000/svg" xmlns:xlink="http://www.w3.org/1999/xlink"><path clip-rule="evenodd" d="M15,0.1C6.8,0.1,0.1,6.8,0.1,15c0,8.2,6.7,14.9,14.9,14.9  S29.9,23.2,29.9,15C29.9,6.8,23.2,0.1,15,0.1z M15,26.9C8.4,26.9,3.1,21.6,3.1,15C3.1,8.4,8.4,3.1,15,3.1c6.6,0,11.9,5.3,11.9,11.9  C26.9,21.6,21.6,26.9,15,26.9z M16,6.1c0,9.5,0,8.6,0,17.9c3.2,0,8-4,8-8.9C23.9,10.1,19.9,6.1,16,6.1z" fill="#211A16" fill-rule="evenodd"/></svg>